<svg width="100" height="100" viewBox="0 0 100 100" fill="none" xmlns="http://www.w3.org/2000/svg">
<circle cx="50" cy="50" r="50" fill="#3D4630"/>
<mask id="mask0_1756_1405" style="mask-type:luminance" maskUnits="userSpaceOnUse" x="12" y="40" width="77" height="25">
<path d="M12 40H88.3805V64.1412H12V40Z" fill="white"/>
</mask>
<g mask="url(#mask0_1756_1405)">
<path d="M12.2734 48.8076C12.7737 48.7214 13.2933 48.6738 13.7845 48.5592C25.7814 45.6493 37.9325 43.8455 50.3151 43.8739C55.0389 43.8841 59.7537 44.2085 64.2847 45.6584C65.5644 46.069 66.8531 46.6408 67.9604 47.3952C70.134 48.8836 70.2599 50.8111 68.4697 52.6909C67.4215 53.7879 66.3529 54.8565 65.3239 55.9638C64.9393 56.3835 64.65 56.8793 64.5252 57.805C67.4499 57.3467 70.3654 56.8895 73.2991 56.4311C74.7614 59.1221 76.1477 61.6598 77.5329 64.2078C77.7348 64.1693 77.9368 64.1409 78.1387 64.1023C78.6299 61.1822 79.12 58.2633 79.6203 55.3148C82.3918 54.4368 85.3447 54.5321 88.3374 53.1299C85.845 51.0686 83.0361 50.439 80.5732 48.8167C80.9192 46.0214 81.2845 43.149 81.6702 40.0474C79.7644 40.4297 79.1393 41.9464 78.0615 42.8529C76.9657 43.7695 75.9934 44.8189 74.8873 45.8875C71.8175 42.5001 67.6325 41.9941 63.477 41.6027C54.3174 40.7439 45.2157 41.5936 36.2206 43.158C28.7548 44.4559 21.3854 46.2982 13.9774 47.9103C13.4 48.0339 12.8418 48.2631 12.2734 48.4355C12.2734 48.5501 12.2734 48.6738 12.2734 48.8076Z" fill="#FAFF7D"/>
</g>
</svg>
